<?xml version="1.0" standalone="no"?>
<!DOCTYPE svg PUBLIC "-//W3C//DTD SVG 20010904//EN"
 "http://www.w3.org/TR/2001/REC-SVG-20010904/DTD/svg10.dtd">
<svg version="1.0" xmlns="http://www.w3.org/2000/svg"
 width="2000.000000pt" height="2000.000000pt" viewBox="0 0 2000.000000 2000.000000"
 preserveAspectRatio="xMidYMid meet">
<metadata>
Created by potrace 1.11, written by Peter Selinger 2001-2013
</metadata>
<g transform="translate(0.000000,2000.000000) scale(0.100000,-0.100000)"
fill="#000000" stroke="none">
<path d="M9236 18987 c3 -10 9 -15 12 -12 3 3 0 11 -7 18 -10 9 -11 8 -5 -6z"/>
<path d="M8930 18979 c0 -5 5 -7 10 -4 6 3 10 8 10 11 0 2 -4 4 -10 4 -5 0
-10 -5 -10 -11z"/>
<path d="M9095 18980 c-3 -5 -1 -10 4 -10 6 0 11 5 11 10 0 6 -2 10 -4 10 -3
0 -8 -4 -11 -10z"/>
<path d="M9170 18979 c0 -5 5 -7 10 -4 6 3 10 8 10 11 0 2 -4 4 -10 4 -5 0
-10 -5 -10 -11z"/>
<path d="M9810 18986 c0 -2 7 -7 16 -10 8 -3 12 -2 9 4 -6 10 -25 14 -25 6z"/>
<path d="M9954 18982 c4 -3 14 -7 22 -8 9 -1 13 0 10 4 -4 3 -14 7 -22 8 -9 1
-13 0 -10 -4z"/>
<path d="M10027 18979 c7 -7 15 -10 18 -7 3 3 -2 9 -12 12 -14 6 -15 5 -6 -5z"/>
<path d="M10226 18962 c-3 -5 1 -9 9 -9 8 0 12 4 9 9 -3 4 -7 8 -9 8 -2 0 -6
-4 -9 -8z"/>
<path d="M8650 18940 c0 -5 5 -10 11 -10 5 0 7 5 4 10 -3 6 -8 10 -11 10 -2 0
-4 -4 -4 -10z"/>
<path d="M10456 18938 c3 -5 10 -6 15 -3 13 9 11 12 -6 12 -8 0 -12 -4 -9 -9z"/>
<path d="M10540 18946 c0 -2 8 -10 18 -17 15 -13 16 -12 3 4 -13 16 -21 21
-21 13z"/>
<path d="M8433 18915 c0 -8 4 -12 9 -9 5 3 6 10 3 15 -9 13 -12 11 -12 -6z"/>
<path d="M10636 18914 c-8 -7 -17 -10 -21 -6 -5 4 -5 2 -1 -5 4 -7 0 -25 -8
-41 -13 -25 -23 -30 -68 -36 -111 -15 -125 -17 -183 -26 -33 -5 -96 -15 -140
-21 -44 -6 -87 -13 -96 -14 -9 -2 -40 -6 -69 -10 -29 -4 -61 -8 -70 -10 -9 -2
-41 -6 -70 -10 -29 -4 -60 -8 -69 -10 -9 -2 -74 -11 -145 -21 l-129 -18 199
-194 c533 -520 545 -533 540 -550 -3 -9 -8 -33 -10 -52 -5 -35 -67 -395 -86
-500 -5 -30 -12 -68 -14 -85 -14 -87 -57 -332 -61 -342 -7 -19 9 -16 67 15 29
16 107 57 173 92 66 34 156 82 200 105 113 60 274 145 383 201 l93 48 52 -28
c28 -15 113 -59 187 -98 205 -107 465 -244 587 -309 39 -22 74 -39 78 -39 8 0
1 58 -20 175 -18 101 -26 143 -30 175 -2 14 -16 91 -30 173 -14 81 -36 211
-49 290 -14 78 -27 155 -30 171 -5 27 3 38 79 110 46 45 159 155 252 246 92
91 181 175 198 188 29 23 29 24 10 35 -11 6 -69 29 -130 49 -60 21 -110 38
-110 38 0 1 -29 9 -65 19 -45 12 -64 22 -62 32 3 11 1 11 -8 2 -9 -8 -29 -5
-81 12 -38 13 -69 22 -69 19 0 -3 -10 1 -22 7 -13 7 -32 13 -43 14 -35 2 -210
50 -213 58 -2 4 -7 5 -11 2 -5 -2 -53 6 -107 19 -54 13 -132 30 -171 37 -40 7
-73 17 -73 22 0 4 -4 6 -9 3 -5 -4 -56 3 -113 15 -56 11 -119 22 -138 25 -19
2 -44 6 -56 9 -11 2 -45 7 -75 11 -30 3 -71 9 -92 14 -27 6 -41 4 -51 -6z"/>
<path d="M8306 18898 c3 -5 10 -6 15 -3 13 9 11 12 -6 12 -8 0 -12 -4 -9 -9z"/>
<path d="M8370 18906 c0 -2 7 -7 16 -10 8 -3 12 -2 9 4 -6 10 -25 14 -25 6z"/>
<path d="M8200 18887 c0 -6 -3 -8 -6 -5 -3 4 -19 2 -35 -2 -20 -6 -29 -5 -29
3 0 9 -2 9 -8 0 -4 -7 -23 -15 -42 -18 -19 -3 -36 -8 -39 -10 -2 -3 -11 1 -19
8 -13 9 -14 9 -8 0 5 -9 1 -13 -11 -14 -10 0 -27 -3 -38 -5 -11 -3 -31 -7 -45
-9 -25 -4 -45 -8 -105 -22 -16 -4 -44 -7 -62 -7 -17 -1 -29 -4 -26 -8 2 -5 -7
-9 -21 -9 -47 -3 -51 -4 -56 -10 -10 -11 -170 -40 -181 -33 -7 4 -9 3 -5 -4 4
-6 -13 -14 -44 -21 -63 -14 -63 -14 -54 1 4 7 3 8 -5 4 -6 -4 -9 -11 -6 -16 6
-10 -62 -23 -77 -14 -6 4 -8 3 -5 -3 6 -10 -169 -57 -183 -48 -5 3 -10 0 -12
-5 -2 -6 -17 -12 -33 -13 -17 -1 -32 -4 -35 -7 -3 -3 -19 -10 -37 -16 -24 -9
-33 -9 -37 0 -3 7 -5 7 -5 -1 -1 -7 -7 -13 -14 -13 -7 0 -48 -11 -92 -25 -44
-14 -85 -23 -93 -20 -7 2 -10 0 -7 -5 3 -6 -1 -11 -9 -11 -17 -2 -35 -5 -38
-9 -2 -1 -11 -3 -20 -5 -37 -7 -94 -29 -113 -43 -15 -11 -16 -13 -3 -9 18 6
34 -8 352 -320 l179 -176 -11 -71 c-7 -39 -14 -87 -17 -106 -3 -19 -10 -55
-15 -80 -8 -37 -51 -289 -65 -380 -3 -21 -12 -71 -40 -240 -3 -14 -9 -49 -15
-79 -5 -29 -10 -56 -10 -58 0 -4 192 94 415 212 44 23 130 68 190 100 61 32
155 81 210 111 l100 53 95 -50 c52 -28 169 -89 260 -136 91 -47 170 -89 175
-93 6 -4 95 -51 198 -105 l188 -97 -6 39 c-3 21 -8 50 -10 63 -3 14 -7 39 -10
55 -3 17 -8 43 -11 58 -3 16 -7 38 -9 50 -1 12 -10 65 -19 117 -10 52 -19 106
-21 120 -3 14 -21 120 -40 235 -54 314 -55 277 9 338 30 28 195 189 366 357
251 245 308 305 293 311 -10 3 -47 10 -83 15 -36 4 -67 8 -70 9 -8 2 -102 16
-135 20 -30 3 -364 51 -420 60 -80 12 -233 35 -260 38 -21 2 -34 12 -45 33
-14 28 -60 44 -60 21z"/>
<path d="M12656 18402 c-2 -4 -1 -14 4 -22 7 -11 9 -9 7 8 -1 24 -3 26 -11 14z"/>
<path d="M12736 18353 c-6 -14 -5 -15 5 -6 7 7 10 15 7 18 -3 3 -9 -2 -12 -12z"/>
<path d="M12770 18341 c0 -6 4 -13 10 -16 6 -3 7 1 4 9 -7 18 -14 21 -14 7z"/>
<path d="M12846 18302 c-3 -5 1 -9 9 -9 8 0 12 4 9 9 -3 4 -7 8 -9 8 -2 0 -6
-4 -9 -8z"/>
<path d="M5959 18273 c-13 -16 -12 -17 4 -4 16 13 21 21 13 21 -2 0 -10 -8
-17 -17z"/>
<path d="M5900 18260 c-12 -7 -10 -9 7 -7 12 0 19 5 17 9 -6 10 -6 10 -24 -2z"/>
<path d="M12996 18258 c3 -5 10 -6 15 -3 13 9 11 12 -6 12 -8 0 -12 -4 -9 -9z"/>
<path d="M5815 18229 c-4 -6 -5 -12 -2 -15 2 -3 7 2 10 11 7 17 1 20 -8 4z"/>
<path d="M13036 18218 c3 -5 10 -6 15 -3 13 9 11 12 -6 12 -8 0 -12 -4 -9 -9z"/>
<path d="M13073 18205 c0 -8 4 -12 9 -9 5 3 6 10 3 15 -9 13 -12 11 -12 -6z"/>
<path d="M5695 18180 c-3 -5 -1 -10 4 -10 6 0 11 5 11 10 0 6 -2 10 -4 10 -3
0 -8 -4 -11 -10z"/>
<path d="M5447 18087 c4 -6 -3 -8 -15 -5 -14 4 -25 1 -30 -9 -5 -8 -15 -15
-23 -17 -8 -1 -41 -15 -73 -30 -32 -15 -65 -25 -73 -22 -8 3 -12 2 -9 -2 3 -5
-15 -18 -40 -30 -50 -24 -69 -28 -58 -10 5 7 3 8 -5 4 -7 -5 -10 -11 -6 -14 8
-9 -108 -63 -123 -57 -7 3 -11 1 -8 -3 3 -5 -46 -33 -107 -63 -62 -29 -115
-58 -118 -62 -4 -5 -18 -10 -32 -10 -14 -1 -23 -5 -21 -9 5 -8 -112 -69 -120
-61 -3 4 -6 1 -6 -6 0 -7 -15 -19 -32 -27 -41 -18 -71 -36 -79 -48 -4 -5 -12
-5 -19 -1 -9 5 -11 4 -6 -3 7 -11 -6 -17 -27 -13 -5 1 -6 -3 -2 -9 3 -5 2 -10
-3 -10 -11 0 -146 -91 -150 -101 -2 -5 -10 -9 -18 -9 -8 0 -14 -5 -14 -11 0
-6 -7 -8 -16 -5 -8 3 -13 2 -10 -3 3 -5 -4 -16 -17 -24 -12 -8 -32 -25 -45
-37 -13 -12 -29 -19 -37 -16 -9 3 -12 0 -9 -8 3 -7 -12 -26 -32 -41 -64 -49
-244 -236 -244 -254 0 -6 -4 -11 -8 -11 -5 0 -15 -11 -22 -25 -7 -13 -16 -22
-20 -20 -4 2 -7 -2 -7 -10 0 -19 -2 -20 54 13 26 16 120 66 208 112 88 45 192
100 230 120 39 21 127 68 198 104 l127 67 158 -82 c86 -45 184 -96 217 -114
33 -18 107 -57 165 -87 58 -31 167 -88 243 -128 126 -66 137 -70 133 -49 -3
13 -10 47 -15 74 -11 50 -15 74 -26 150 -4 22 -15 90 -26 150 -11 61 -22 126
-25 145 -3 19 -9 58 -14 85 -6 28 -12 68 -15 90 -3 22 -10 60 -15 85 -5 25
-12 61 -14 80 -3 19 -10 58 -15 85 l-10 50 66 67 c37 37 69 65 73 63 4 -2 7 2
7 9 0 7 -6 13 -13 13 -7 0 -10 -5 -7 -10z"/>
<path d="M13316 18078 c3 -5 10 -6 15 -3 13 9 11 12 -6 12 -8 0 -12 -4 -9 -9z"/>
<path d="M13460 18000 c8 -5 20 -10 25 -10 6 0 3 5 -5 10 -8 5 -19 10 -25 10
-5 0 -3 -5 5 -10z"/>
<path d="M13535 17958 c3 -12 -2 -61 -11 -108 -8 -46 -17 -100 -20 -120 -2
-19 -7 -48 -11 -65 -3 -16 -7 -37 -9 -45 -2 -16 -13 -80 -20 -120 -2 -14 -20
-119 -39 -235 -20 -115 -38 -221 -41 -235 -2 -14 -7 -40 -10 -59 l-6 -33 129
67 c70 37 175 93 233 123 58 30 128 67 155 82 28 15 122 65 210 110 88 46 165
87 172 92 11 9 142 -52 243 -113 l35 -21 -40 37 c-22 20 -39 41 -37 47 1 5 -2
7 -8 3 -15 -9 -132 88 -117 97 7 5 2 7 -13 6 -16 -2 -24 2 -23 9 2 7 0 12 -5
11 -6 -2 -87 50 -117 75 -5 4 -31 23 -57 41 -26 18 -44 37 -40 41 4 5 2 5 -4
2 -11 -6 -127 66 -119 75 3 2 -1 5 -7 5 -15 0 -259 152 -270 168 -4 5 -8 6 -8
1 0 -5 -6 -4 -12 2 -7 5 -30 19 -51 31 -21 12 -49 28 -62 37 -23 15 -24 15
-20 -8z"/>
<path d="M14650 17181 c0 -10 29 -36 34 -30 1 2 -6 12 -16 22 -10 9 -18 13
-18 8z"/>
<path d="M14770 17060 c0 -5 5 -10 11 -10 5 0 7 5 4 10 -3 6 -8 10 -11 10 -2
0 -4 -4 -4 -10z"/>
<path d="M14879 16973 c-13 -16 -12 -17 4 -4 9 7 17 15 17 17 0 8 -8 3 -21
-13z"/>
<path d="M14890 16940 c0 -5 5 -10 11 -10 5 0 7 5 4 10 -3 6 -8 10 -11 10 -2
0 -4 -4 -4 -10z"/>
<path d="M14931 16913 c7 -12 15 -20 18 -17 3 2 -3 12 -13 22 -17 16 -18 16
-5 -5z"/>
<path d="M12856 16597 c-81 -166 -183 -371 -225 -456 -84 -169 -78 -163 -179
-175 -26 -3 -108 -15 -182 -26 -74 -11 -155 -22 -180 -25 -25 -3 -67 -10 -95
-15 -27 -5 -72 -12 -100 -15 -81 -10 -159 -22 -205 -30 -14 -2 -47 -7 -75 -10
-100 -12 -147 46 424 -511 221 -216 231 -226 231 -233 0 -3 -4 -23 -9 -44 -5
-21 -7 -36 -4 -33 15 14 307 -239 296 -257 -3 -5 -1 -7 4 -4 14 9 145 -132
136 -146 -3 -6 -1 -7 4 -4 13 8 65 -57 55 -69 -4 -5 -3 -6 2 -2 5 4 21 -10 37
-31 33 -47 45 -55 55 -40 4 8 3 9 -4 5 -7 -4 -12 -5 -12 -3 0 3 41 26 91 51
l90 47 137 -72 c150 -78 283 -149 407 -214 44 -23 139 -73 210 -110 72 -37
135 -72 141 -76 17 -14 23 0 14 34 -5 18 -11 48 -14 67 -8 57 -43 264 -71 425
-14 83 -28 162 -30 178 -7 36 -14 78 -19 102 -2 11 -9 54 -16 95 -6 41 -13 82
-16 91 -2 8 4 24 14 35 18 18 538 525 664 647 63 61 63 61 -22 72 -25 3 -108
15 -185 26 -77 12 -149 22 -160 24 -46 5 -131 18 -150 21 -10 2 -37 6 -60 9
-22 4 -51 8 -65 10 -14 2 -45 7 -70 10 -130 18 -243 36 -249 40 -4 2 -108 209
-231 459 -123 251 -227 456 -230 456 -3 0 -72 -136 -154 -303z"/>
<path d="M9545 16425 c-201 -408 -231 -465 -252 -466 -13 -1 -26 -2 -30 -3 -5
-1 -37 -6 -73 -10 -36 -5 -74 -10 -85 -12 -10 -2 -37 -6 -60 -9 -22 -4 -51 -8
-65 -10 -14 -2 -45 -6 -70 -10 -25 -3 -56 -8 -70 -10 -14 -2 -45 -7 -70 -10
-25 -3 -74 -11 -110 -16 -36 -5 -76 -12 -90 -14 -14 -2 -44 -6 -68 -10 -52 -8
-83 -12 -146 -20 -28 -3 -52 -8 -54 -10 -6 -5 89 -99 114 -113 10 -6 36 -4 71
4 30 7 76 15 101 19 26 3 61 8 78 11 56 9 108 14 167 18 32 3 61 7 64 10 4 3
13 0 21 -7 13 -9 14 -9 8 1 -5 8 1 12 21 13 15 0 42 2 58 4 82 8 122 8 135 0
8 -5 11 -4 6 3 -4 7 16 11 61 11 38 1 79 2 93 4 14 2 31 -1 38 -6 7 -6 12 -6
12 0 0 5 78 8 188 7 256 -3 352 -7 352 -13 0 -3 48 -7 107 -8 65 -2 109 -7
114 -14 4 -8 8 -8 13 -1 4 6 12 9 19 7 7 -3 30 -7 52 -9 22 -3 40 -5 40 -6 0
-2 99 -12 117 -12 10 1 20 -3 23 -7 2 -5 16 -7 30 -6 14 2 25 0 25 -5 0 -4 10
-6 22 -2 16 4 19 2 13 -9 -7 -11 -6 -12 7 -2 8 7 17 10 20 7 3 -3 21 -7 39 -9
19 -3 48 -8 64 -12 17 -4 36 -6 44 -4 8 1 10 -2 5 -10 -4 -7 -3 -10 3 -6 5 3
27 2 49 -4 21 -5 55 -11 74 -15 19 -3 51 -10 70 -16 19 -7 42 -12 50 -13 8 -1
42 -10 76 -19 l61 -18 111 109 c62 60 112 112 112 115 0 3 -26 9 -57 13 -32 4
-66 9 -78 11 -11 2 -85 13 -165 24 -80 11 -156 22 -170 25 -24 3 -84 12 -140
20 -14 2 -86 13 -160 24 -74 11 -157 23 -185 27 -27 3 -53 8 -57 10 -4 3 -53
98 -109 212 -125 254 -350 706 -353 709 -1 1 -105 -207 -231 -462z"/>
<path d="M14975 16860 c3 -5 8 -10 11 -10 2 0 4 5 4 10 0 6 -5 10 -11 10 -5 0
-7 -4 -4 -10z"/>
<path d="M6441 16577 c-241 -494 -353 -717 -362 -723 -6 -3 -20 -7 -32 -9 -28
-3 -114 -16 -147 -21 -14 -2 -75 -11 -137 -19 -62 -9 -121 -18 -131 -20 -11
-2 -43 -6 -72 -10 -29 -4 -62 -9 -74 -11 -12 -2 -110 -16 -218 -31 -109 -15
-198 -30 -198 -34 0 -4 6 -14 13 -21 8 -7 143 -139 302 -293 455 -443 416
-402 410 -433 -2 -15 -7 -44 -10 -66 -4 -21 -9 -48 -11 -60 -5 -25 -24 -138
-30 -181 -3 -16 -11 -66 -19 -110 -8 -44 -17 -96 -20 -115 -3 -19 -19 -109
-35 -200 -16 -91 -32 -187 -36 -213 l-6 -48 43 24 c24 13 98 52 164 87 66 34
156 82 200 105 44 23 134 71 200 105 66 34 162 85 212 112 l93 50 157 -83 c87
-45 185 -96 218 -114 33 -18 114 -60 180 -95 233 -122 310 -163 320 -170 6 -4
18 -10 28 -13 14 -5 17 -3 13 11 -6 21 -14 62 -22 122 -3 25 -8 54 -10 65 -2
11 -11 61 -20 110 -8 50 -17 101 -20 115 -2 14 -7 41 -9 60 -3 19 -8 44 -10
56 -3 12 -7 36 -10 55 -3 19 -21 120 -39 226 l-33 192 106 105 106 104 -1 89
c0 48 4 94 9 101 5 7 6 12 0 12 -5 0 -9 9 -10 20 -1 11 3 20 9 20 6 0 8 3 5 7
-9 9 154 65 171 58 7 -2 11 -1 8 3 -4 7 129 54 184 67 3 0 15 6 26 13 12 6 25
8 29 4 5 -4 5 -1 1 6 -5 7 10 29 38 56 25 24 46 49 46 55 0 6 -15 11 -32 12
-18 0 -40 2 -48 4 -8 1 -35 6 -60 9 -25 4 -72 11 -105 16 -33 5 -80 12 -105
15 -25 3 -56 8 -70 10 -39 7 -169 26 -270 40 -48 6 -128 18 -145 21 -11 2 -40
6 -65 9 -25 3 -54 7 -65 10 -11 2 -26 4 -33 4 -6 1 -114 208 -239 461 -125
253 -229 460 -232 460 -3 -1 -48 -87 -100 -193z"/>
<path d="M3616 16738 c3 -5 10 -6 15 -3 13 9 11 12 -6 12 -8 0 -12 -4 -9 -9z"/>
<path d="M3600 16680 c-9 -6 -10 -10 -3 -10 6 0 15 5 18 10 8 12 4 12 -15 0z"/>
<path d="M15295 16511 c-3 -5 -2 -12 3 -15 5 -3 9 1 9 9 0 17 -3 19 -12 6z"/>
<path d="M15330 16465 c0 -5 5 -17 10 -25 5 -8 10 -10 10 -5 0 6 -5 17 -10 25
-5 8 -10 11 -10 5z"/>
<path d="M3479 16400 c-2 -13 -4 -21 -11 -40 -9 -23 -30 -111 -35 -150 -3 -19
-8 -37 -12 -40 -3 -3 -7 -36 -9 -75 -2 -38 -9 -76 -15 -84 -7 -8 -7 -12 -2 -9
6 4 10 -47 10 -145 1 -146 7 -223 23 -297 4 -19 8 -42 7 -50 0 -8 3 -18 7 -21
5 -3 9 -24 11 -46 1 -23 5 -39 10 -36 4 2 8 -5 9 -16 0 -12 1 -27 2 -33 1 -7
3 -15 6 -18 10 -10 30 -50 30 -60 0 -19 82 -181 121 -241 22 -32 39 -61 39
-64 0 -4 6 -12 13 -20 6 -7 44 -49 82 -93 39 -45 77 -83 85 -86 8 -4 32 -22
53 -41 22 -19 67 -51 100 -72 34 -20 65 -41 68 -46 3 -5 9 -8 13 -8 20 3 26 0
21 -9 -10 -16 1 -11 16 7 8 10 9 14 2 10 -8 -5 -14 7 -19 40 -3 27 -8 57 -10
68 -2 11 -13 74 -25 139 l-21 120 153 149 c476 463 579 564 579 569 0 3 -21 9
-47 13 -27 3 -59 8 -73 10 -14 2 -74 11 -135 20 -60 9 -121 18 -135 20 -14 2
-45 7 -70 10 -25 3 -85 12 -135 20 -49 8 -110 17 -135 20 -25 3 -99 13 -164
23 l-120 17 -107 215 c-59 118 -120 243 -135 278 -26 57 -42 77 -45 52z"/>
<path d="M15430 16336 c0 -2 8 -10 18 -17 15 -13 16 -12 3 4 -13 16 -21 21
-21 13z"/>
<path d="M15450 16296 c0 -2 8 -10 18 -17 15 -13 16 -12 3 4 -13 16 -21 21
-21 13z"/>
<path d="M15665 15980 c-3 -6 1 -7 9 -4 18 7 21 14 7 14 -6 0 -13 -4 -16 -10z"/>
<path d="M15678 15965 c-2 -2 -17 -6 -33 -9 -85 -13 -117 -18 -138 -20 -58 -7
-142 -19 -252 -36 -66 -10 -140 -22 -165 -25 -25 -3 -56 -8 -70 -10 -14 -2
-61 -9 -105 -15 -110 -16 -139 -21 -143 -24 -3 -4 -13 6 372 -369 391 -381
365 -353 355 -391 -7 -27 -16 -79 -23 -126 -2 -8 -6 -28 -9 -45 -4 -16 -9 -46
-11 -65 -3 -20 -11 -74 -20 -120 -9 -47 -18 -101 -21 -120 -3 -19 -7 -46 -10
-60 -3 -14 -7 -41 -10 -60 -16 -93 -45 -263 -50 -283 -9 -43 -15 -97 -10 -97
2 0 33 15 67 33 159 85 287 152 608 320 85 45 172 91 193 103 38 21 39 21 77
3 48 -23 45 -24 45 5 0 13 -2 23 -5 21 -5 -3 -38 100 -43 135 -2 8 -6 21 -10
28 -5 6 -5 17 -2 22 3 6 1 10 -6 10 -7 0 -9 10 -7 25 3 13 2 22 -2 20 -11 -7
-52 123 -44 137 4 7 3 10 -1 6 -10 -9 -67 121 -59 133 3 5 0 9 -5 9 -6 0 -11
9 -11 20 0 11 -4 20 -8 20 -9 0 -37 77 -35 97 0 7 -3 11 -7 8 -10 -6 -41 75
-33 89 3 6 2 8 -2 3 -11 -9 -107 184 -100 201 3 7 0 10 -5 7 -12 -8 -63 92
-54 108 4 7 3 9 -1 4 -5 -4 -19 12 -33 35 -38 67 -62 110 -85 153 -12 22 -30
49 -39 59 -10 11 -18 24 -18 29 0 11 -26 37 -32 32z"/>
<path d="M8176 15661 c-3 -5 2 -15 12 -22 15 -12 16 -12 5 2 -7 9 -10 19 -6
22 3 4 4 7 0 7 -3 0 -8 -4 -11 -9z"/>
<path d="M8135 15640 c-3 -5 -1 -10 4 -10 6 0 11 5 11 10 0 6 -2 10 -4 10 -3
0 -8 -4 -11 -10z"/>
<path d="M11073 15565 c0 -8 4 -12 9 -9 5 3 6 10 3 15 -9 13 -12 11 -12 -6z"/>
<path d="M11380 15486 c0 -2 8 -10 18 -17 15 -13 16 -12 3 4 -13 16 -21 21
-21 13z"/>
<path d="M11554 15409 c-3 -6 -2 -15 3 -20 5 -5 9 -1 9 11 0 23 -2 24 -12 9z"/>
<path d="M12056 15167 c3 -10 9 -15 12 -12 3 3 0 11 -7 18 -10 9 -11 8 -5 -6z"/>
<path d="M7487 15159 c7 -7 15 -10 18 -7 3 3 -2 9 -12 12 -14 6 -15 5 -6 -5z"/>
<path d="M12154 15116 c1 -8 5 -18 8 -22 4 -3 5 1 4 10 -1 8 -5 18 -8 22 -4 3
-5 -1 -4 -10z"/>
<path d="M7476 15082 c-3 -5 1 -9 9 -9 8 0 12 4 9 9 -3 4 -7 8 -9 8 -2 0 -6
-4 -9 -8z"/>
<path d="M12190 15086 c0 -2 7 -7 16 -10 8 -3 12 -2 9 4 -6 10 -25 14 -25 6z"/>
<path d="M7476 14762 c-3 -5 1 -9 9 -9 8 0 12 4 9 9 -3 4 -7 8 -9 8 -2 0 -6
-4 -9 -8z"/>
<path d="M7470 14559 c0 -5 5 -7 10 -4 6 3 10 8 10 11 0 2 -4 4 -10 4 -5 0
-10 -5 -10 -11z"/>
<path d="M4230 14546 c0 -2 7 -7 16 -10 8 -3 12 -2 9 4 -6 10 -25 14 -25 6z"/>
<path d="M4295 14380 c-3 -5 -1 -10 4 -10 6 0 11 5 11 10 0 6 -2 10 -4 10 -3
0 -8 -4 -11 -10z"/>
<path d="M7480 14340 c-9 -6 -10 -10 -3 -10 6 0 15 5 18 10 8 12 4 12 -15 0z"/>
<path d="M12913 14315 c0 -8 4 -12 9 -9 5 3 6 10 3 15 -9 13 -12 11 -12 -6z"/>
<path d="M4299 14308 c-5 -18 -6 -38 -1 -34 7 8 12 36 6 36 -2 0 -4 -1 -5 -2z"/>
<path d="M16350 14306 c0 -2 7 -7 16 -10 8 -3 12 -2 9 4 -6 10 -25 14 -25 6z"/>
<path d="M12953 14265 c0 -8 4 -12 9 -9 5 3 6 10 3 15 -9 13 -12 11 -12 -6z"/>
<path d="M16370 14260 c0 -5 5 -10 11 -10 5 0 7 5 4 10 -3 6 -8 10 -11 10 -2
0 -4 -4 -4 -10z"/>
<path d="M12970 14223 c0 -6 8 -17 18 -24 16 -13 16 -13 2 6 -8 11 -16 22 -17
24 -2 2 -3 0 -3 -6z"/>
<path d="M7476 14202 c-3 -5 1 -9 9 -9 8 0 12 4 9 9 -3 4 -7 8 -9 8 -2 0 -6
-4 -9 -8z"/>
<path d="M4299 14188 c-5 -18 -6 -38 -1 -34 7 8 12 36 6 36 -2 0 -4 -1 -5 -2z"/>
<path d="M12996 14142 c-3 -4 4 -9 15 -9 23 -2 25 3 4 10 -8 4 -16 3 -19 -1z"/>
<path d="M4290 14120 c0 -5 5 -10 11 -10 5 0 7 5 4 10 -3 6 -8 10 -11 10 -2 0
-4 -4 -4 -10z"/>
<path d="M4294 14056 c1 -8 5 -18 8 -22 4 -3 5 1 4 10 -1 8 -5 18 -8 22 -4 3
-5 -1 -4 -10z"/>
<path d="M7475 14061 c-3 -5 -2 -12 3 -15 5 -3 9 1 9 9 0 17 -3 19 -12 6z"/>
<path d="M13055 14020 c3 -5 8 -10 11 -10 2 0 4 5 4 10 0 6 -5 10 -11 10 -5 0
-7 -4 -4 -10z"/>
<path d="M13067 13979 c7 -7 15 -10 18 -7 3 3 -2 9 -12 12 -14 6 -15 5 -6 -5z"/>
<path d="M14960 13891 c0 -23 -451 -918 -462 -918 -17 0 -60 -6 -313 -43 -162
-24 -185 -27 -280 -41 -38 -5 -81 -11 -95 -14 -14 -2 -45 -7 -70 -10 -25 -4
-88 -13 -140 -21 -52 -7 -99 -14 -104 -14 -5 0 90 -96 210 -213 121 -118 288
-281 372 -363 l152 -149 -9 -50 c-5 -27 -27 -158 -50 -290 -22 -132 -43 -250
-45 -262 -3 -11 -8 -43 -12 -70 -3 -26 -8 -57 -10 -68 -5 -23 -8 -39 -28 -160
-21 -122 -22 -119 15 -100 17 9 33 15 35 13 3 -4 -88 -190 -373 -765 -28 -57
-52 -93 -62 -94 -9 0 -25 -2 -36 -4 -11 -2 -69 -11 -130 -19 -60 -9 -121 -18
-135 -20 -14 -2 -47 -7 -73 -11 -27 -4 -58 -8 -70 -11 -11 -2 -43 -6 -71 -9
-28 -3 -76 -10 -106 -15 -73 -12 -339 -51 -362 -53 -29 -2 -79 50 448 -463
l271 -263 -19 -103 c-11 -57 -21 -114 -23 -128 -5 -33 -14 -89 -20 -120 -3
-14 -7 -41 -10 -60 -3 -19 -8 -48 -11 -63 -3 -16 -7 -38 -9 -50 -1 -12 -12
-74 -23 -137 -11 -63 -23 -133 -26 -155 -4 -22 -11 -65 -16 -95 -5 -30 -11
-67 -14 -83 l-5 -27 72 39 c40 21 122 64 182 96 61 32 142 74 180 95 39 20
133 70 210 110 77 40 170 88 207 108 l67 34 126 -67 c145 -77 117 -81 231 33
39 39 68 61 75 56 8 -4 9 -3 5 4 -8 13 93 124 105 116 4 -2 11 1 15 7 4 8 3 9
-4 5 -7 -4 -12 -3 -12 3 0 5 6 14 13 18 6 4 30 28 52 53 22 25 44 44 50 42 5
-2 7 0 3 3 -4 4 18 37 48 73 49 58 55 69 49 96 -22 104 -32 86 140 251 87 83
162 150 169 150 6 0 11 5 11 10 0 6 16 28 35 49 61 67 65 71 79 98 8 15 19 25
24 21 6 -3 7 -2 4 3 -6 11 56 117 64 109 3 -3 6 1 6 7 0 7 20 45 45 84 28 43
41 71 32 71 -7 0 -11 -4 -8 -9 3 -4 -10 -6 -28 -3 -18 2 -109 16 -203 30 -93
14 -186 27 -205 30 -88 12 -119 16 -175 25 -33 5 -76 12 -95 15 -19 2 -71 10
-115 16 l-80 11 -94 192 c-52 105 -151 305 -220 444 -120 242 -125 254 -106
265 11 7 76 41 145 78 69 36 172 90 230 121 349 184 394 205 415 194 11 -6 83
-44 160 -85 77 -41 176 -93 220 -116 44 -23 139 -73 210 -110 72 -37 166 -87
211 -111 45 -24 83 -44 86 -44 3 0 2 17 -2 38 -5 20 -11 55 -14 77 -4 22 -11
65 -16 95 -5 30 -12 69 -15 86 -3 18 -16 99 -30 180 -14 82 -28 164 -31 183
-3 18 -7 43 -10 54 -2 12 -6 37 -9 57 -3 19 -14 82 -24 140 l-19 105 142 138
c365 358 568 552 574 550 4 -1 8 7 8 17 0 20 -12 25 -96 35 -25 3 -56 8 -70
10 -22 4 -68 11 -135 20 -11 1 -39 5 -62 9 -24 3 -62 8 -85 12 -24 3 -50 7
-58 9 -8 2 -36 7 -62 10 -26 3 -64 8 -85 11 -21 3 -47 7 -58 9 -26 3 -113 16
-145 21 -14 2 -50 6 -81 10 -31 3 -60 9 -65 13 -8 6 -165 318 -370 738 -79
163 -104 204 -104 174z"/>
<path d="M13095 13881 c-3 -5 -2 -12 3 -15 5 -3 9 1 9 9 0 17 -3 19 -12 6z"/>
<path d="M4299 13868 c-5 -18 -6 -38 -1 -34 7 8 12 36 6 36 -2 0 -4 -1 -5 -2z"/>
<path d="M16430 13820 c0 -5 5 -10 11 -10 5 0 7 5 4 10 -3 6 -8 10 -11 10 -2
0 -4 -4 -4 -10z"/>
<path d="M4290 13800 c0 -5 5 -10 11 -10 5 0 7 5 4 10 -3 6 -8 10 -11 10 -2 0
-4 -4 -4 -10z"/>
<path d="M7476 13802 c-3 -5 1 -9 9 -9 8 0 12 4 9 9 -3 4 -7 8 -9 8 -2 0 -6
-4 -9 -8z"/>
<path d="M5225 13713 c-21 -43 -123 -250 -227 -460 -149 -303 -193 -383 -208
-384 -11 -1 -23 -2 -27 -3 -7 -2 -90 -14 -143 -21 -8 -1 -39 -5 -69 -9 -30 -4
-62 -9 -72 -11 -36 -7 -108 -17 -145 -20 -22 -2 -41 -4 -44 -4 -3 -1 -4 -129
-3 -285 l2 -283 112 -109 c61 -60 114 -117 118 -128 4 -10 1 -46 -6 -80 -7
-33 -15 -79 -18 -101 -3 -22 -8 -53 -12 -70 -3 -16 -7 -39 -9 -50 -1 -11 -17
-101 -34 -200 -17 -99 -33 -191 -35 -205 -2 -14 -7 -41 -10 -60 -4 -19 -14
-81 -24 -137 -19 -107 -16 -117 24 -90 50 34 48 20 -13 -105 -57 -115 -66
-127 -80 -116 -15 12 -16 11 -3 -5 9 -11 11 -21 5 -25 -13 -10 -13 -12 -14
-420 -1 -283 -4 -371 -13 -365 -9 5 -9 3 0 -8 10 -12 12 -143 12 -550 0 -294
0 -589 1 -656 l0 -121 77 44 c43 24 85 44 94 44 9 0 40 -13 70 -28 250 -133
462 -244 609 -320 69 -35 149 -78 179 -94 29 -16 55 -27 56 -26 3 3 -7 67 -20
138 -4 19 -8 44 -9 55 -5 33 -21 125 -31 175 -2 14 -7 39 -9 55 -10 60 -25
150 -29 170 -3 11 -10 52 -17 92 -6 39 -13 77 -14 85 -1 7 -11 65 -21 129
l-18 117 44 43 c25 24 182 177 348 339 167 162 312 304 323 315 19 20 19 20
-14 27 -18 4 -53 10 -78 13 -78 11 -124 18 -210 30 -14 2 -47 7 -75 10 -27 4
-57 8 -65 10 -8 2 -35 7 -60 10 -25 3 -63 8 -85 12 -22 3 -50 7 -62 9 -13 1
-42 5 -65 9 -24 4 -54 8 -68 10 -14 2 -45 7 -70 11 -25 3 -67 9 -95 13 l-50 6
-222 445 c-122 245 -222 450 -222 457 -1 10 113 72 544 298 242 127 246 129
263 118 9 -5 67 -36 127 -68 238 -125 323 -169 390 -205 217 -116 367 -191
371 -187 3 2 0 35 -7 73 -6 38 -13 83 -15 99 -2 17 -13 77 -24 135 -10 58 -21
121 -24 140 -3 19 -8 46 -11 60 -4 22 -13 74 -21 125 -5 38 -54 320 -60 348
-6 30 -39 -4 474 494 138 135 252 249 252 252 0 4 -73 17 -162 29 -90 13 -185
27 -213 32 -27 5 -74 12 -104 15 -30 4 -63 9 -75 11 -12 2 -41 6 -66 9 -25 3
-85 12 -135 20 -49 8 -108 16 -130 20 -104 14 -121 17 -128 24 -7 7 -155 304
-358 718 -52 106 -97 193 -100 193 -3 0 -23 -35 -44 -77z"/>
<path d="M4294 13736 c1 -8 5 -18 8 -22 4 -3 5 1 4 10 -1 8 -5 18 -8 22 -4 3
-5 -1 -4 -10z"/>
<path d="M13130 13746 c0 -2 7 -7 16 -10 8 -3 12 -2 9 4 -6 10 -25 14 -25 6z"/>
<path d="M13146 13662 c-2 -4 4 -8 14 -8 10 0 16 4 14 8 -3 4 -9 8 -14 8 -5 0
-11 -4 -14 -8z"/>
<path d="M16430 13646 c0 -2 7 -7 16 -10 8 -3 12 -2 9 4 -6 10 -25 14 -25 6z"/>
<path d="M7470 13599 c0 -5 5 -7 10 -4 6 3 10 8 10 11 0 2 -4 4 -10 4 -5 0
-10 -5 -10 -11z"/>
<path d="M4286 13542 c-3 -5 1 -9 9 -9 8 0 12 4 9 9 -3 4 -7 8 -9 8 -2 0 -6
-4 -9 -8z"/>
<path d="M4290 13500 c0 -5 5 -10 11 -10 5 0 7 5 4 10 -3 6 -8 10 -11 10 -2 0
-4 -4 -4 -10z"/>
<path d="M16453 13475 c0 -8 4 -12 9 -9 5 3 6 10 3 15 -9 13 -12 11 -12 -6z"/>
<path d="M13193 13435 c0 -8 4 -12 9 -9 5 3 6 10 3 15 -9 13 -12 11 -12 -6z"/>
<path d="M13195 13391 c-3 -5 -2 -12 3 -15 5 -3 9 1 9 9 0 17 -3 19 -12 6z"/>
<path d="M4299 13388 c-5 -18 -6 -38 -1 -34 7 8 12 36 6 36 -2 0 -4 -1 -5 -2z"/>
<path d="M4290 13320 c0 -5 5 -10 11 -10 5 0 7 5 4 10 -3 6 -8 10 -11 10 -2 0
-4 -4 -4 -10z"/>
<path d="M4294 13256 c1 -8 5 -18 8 -22 4 -3 5 1 4 10 -1 8 -5 18 -8 22 -4 3
-5 -1 -4 -10z"/>
<path d="M7476 13242 c-3 -5 1 -9 9 -9 8 0 12 4 9 9 -3 4 -7 8 -9 8 -2 0 -6
-4 -9 -8z"/>
<path d="M13193 13173 c0 -9 4 -10 14 -2 7 6 13 12 13 14 0 1 -6 2 -13 2 -8 0
-14 -6 -14 -14z"/>
<path d="M16430 13146 c0 -2 7 -7 16 -10 8 -3 12 -2 9 4 -6 10 -25 14 -25 6z"/>
<path d="M7475 13071 c-3 -5 -2 -12 3 -15 5 -3 9 1 9 9 0 17 -3 19 -12 6z"/>
<path d="M4286 13062 c-3 -5 1 -9 9 -9 8 0 12 4 9 9 -3 4 -7 8 -9 8 -2 0 -6
-4 -9 -8z"/>
<path d="M16456 13062 c-3 -5 1 -9 9 -9 8 0 12 4 9 9 -3 4 -7 8 -9 8 -2 0 -6
-4 -9 -8z"/>
<path d="M4290 13020 c0 -5 5 -10 11 -10 5 0 7 5 4 10 -3 6 -8 10 -11 10 -2 0
-4 -4 -4 -10z"/>
<path d="M4286 12902 c-3 -5 1 -9 9 -9 8 0 12 4 9 9 -3 4 -7 8 -9 8 -2 0 -6
-4 -9 -8z"/>
<path d="M4290 12860 c0 -5 5 -10 11 -10 5 0 7 5 4 10 -3 6 -8 10 -11 10 -2 0
-4 -4 -4 -10z"/>
<path d="M13175 12860 c3 -5 8 -10 11 -10 2 0 4 5 4 10 0 6 -5 10 -11 10 -5 0
-7 -4 -4 -10z"/>
<path d="M16430 12846 c0 -2 7 -7 16 -10 8 -3 12 -2 9 4 -6 10 -25 14 -25 6z"/>
<path d="M7496 12818 c3 -5 10 -6 15 -3 13 9 11 12 -6 12 -8 0 -12 -4 -9 -9z"/>
<path d="M7425 12780 c-22 -4 -58 -10 -80 -13 -78 -11 -120 -17 -150 -22 -16
-3 -48 -7 -70 -10 -71 -11 -87 -14 -92 -19 -4 -4 56 -64 369 -368 49 -49 91
-88 93 -88 2 0 2 20 0 45 -2 25 1 45 6 45 6 0 6 6 0 18 -5 9 -10 19 -12 22 -1
3 3 14 9 26 8 16 8 24 0 32 -9 9 -7 16 8 27 12 10 14 14 4 13 -12 -3 -14 15
-15 97 -1 55 3 108 8 119 6 12 5 16 -1 12 -6 -4 -9 10 -7 34 3 44 2 44 -70 30z"/>
<path d="M13145 12708 c-11 -45 -13 -98 -3 -92 5 3 7 9 3 12 -3 3 11 23 32 44
20 21 35 39 32 41 -2 2 -16 7 -31 11 -23 5 -28 3 -33 -16z"/>
<path d="M16396 12647 c3 -10 9 -15 12 -12 3 3 0 11 -7 18 -10 9 -11 8 -5 -6z"/>
<path d="M16394 12600 c0 -13 4 -16 10 -10 7 7 7 13 0 20 -6 6 -10 3 -10 -10z"/>
<path d="M16395 12541 c-3 -5 -2 -12 3 -15 5 -3 9 1 9 9 0 17 -3 19 -12 6z"/>
<path d="M16370 12460 c0 -5 5 -10 11 -10 5 0 7 5 4 10 -3 6 -8 10 -11 10 -2
0 -4 -4 -4 -10z"/>
<path d="M13075 12401 c-3 -5 -2 -12 3 -15 5 -3 9 1 9 9 0 17 -3 19 -12 6z"/>
<path d="M13039 12313 c-13 -16 -12 -17 4 -4 9 7 17 15 17 17 0 8 -8 3 -21
-13z"/>
<path d="M16346 12278 c3 -5 10 -6 15 -3 13 9 11 12 -6 12 -8 0 -12 -4 -9 -9z"/>
<path d="M12990 12216 c0 -2 8 -10 18 -17 15 -13 16 -12 3 4 -13 16 -21 21
-21 13z"/>
<path d="M4294 12136 c1 -8 5 -18 8 -22 4 -3 5 1 4 10 -1 8 -5 18 -8 22 -4 3
-5 -1 -4 -10z"/>
<path d="M12910 12042 c0 -5 7 -9 15 -9 8 0 12 4 9 9 -3 4 -9 8 -15 8 -5 0 -9
-4 -9 -8z"/>
<path d="M12896 11978 c3 -5 10 -6 15 -3 13 9 11 12 -6 12 -8 0 -12 -4 -9 -9z"/>
<path d="M4299 11948 c-5 -18 -6 -38 -1 -34 7 8 12 36 6 36 -2 0 -4 -1 -5 -2z"/>
<path d="M4290 11880 c0 -5 5 -10 11 -10 5 0 7 5 4 10 -3 6 -8 10 -11 10 -2 0
-4 -4 -4 -10z"/>
<path d="M7476 11882 c-3 -5 1 -9 9 -9 8 0 12 4 9 9 -3 4 -7 8 -9 8 -2 0 -6
-4 -9 -8z"/>
<path d="M4294 11816 c1 -8 5 -18 8 -22 4 -3 5 1 4 10 -1 8 -5 18 -8 22 -4 3
-5 -1 -4 -10z"/>
<path d="M12816 11813 c-6 -14 -5 -15 5 -6 7 7 10 15 7 18 -3 3 -9 -2 -12 -12z"/>
<path d="M12790 11759 c0 -5 5 -7 10 -4 6 3 10 8 10 11 0 2 -4 4 -10 4 -5 0
-10 -5 -10 -11z"/>
<path d="M16210 11739 c0 -5 5 -7 10 -4 6 3 10 8 10 11 0 2 -4 4 -10 4 -5 0
-10 -5 -10 -11z"/>
<path d="M12753 11715 c0 -8 4 -12 9 -9 5 3 6 10 3 15 -9 13 -12 11 -12 -6z"/>
<path d="M7470 11679 c0 -5 5 -7 10 -4 6 3 10 8 10 11 0 2 -4 4 -10 4 -5 0
-10 -5 -10 -11z"/>
<path d="M16199 11688 c-5 -18 -6 -38 -1 -34 7 8 12 36 6 36 -2 0 -4 -1 -5 -2z"/>
<path d="M16170 11619 c0 -5 5 -7 10 -4 6 3 10 8 10 11 0 2 -4 4 -10 4 -5 0
-10 -5 -10 -11z"/>
<path d="M12627 11539 c7 -7 15 -10 18 -7 3 3 -2 9 -12 12 -14 6 -15 5 -6 -5z"/>
<path d="M4295 11500 c-3 -5 -1 -10 4 -10 6 0 11 5 11 10 0 6 -2 10 -4 10 -3
0 -8 -4 -11 -10z"/>
<path d="M12615 11500 c-3 -5 -1 -10 4 -10 6 0 11 5 11 10 0 6 -2 10 -4 10 -3
0 -8 -4 -11 -10z"/>
<path d="M16116 11462 c-2 -4 -1 -14 4 -22 7 -11 9 -9 7 8 -1 24 -3 26 -11 14z"/>
<path d="M12560 11435 c-7 -8 -17 -12 -23 -8 -6 3 -7 1 -3 -6 9 -15 -32 -73
-46 -65 -6 4 -8 3 -5 -3 6 -9 -33 -60 -88 -118 -11 -12 -33 -36 -48 -54 l-28
-33 23 -12 c13 -7 85 -45 160 -84 75 -40 139 -72 143 -72 6 0 0 55 -10 90 -2
8 -6 37 -10 64 -3 27 -8 52 -9 55 -2 3 -7 26 -10 51 -7 53 -14 92 -23 140 -3
19 -5 43 -4 53 3 21 -3 22 -19 2z"/>
<path d="M4299 11428 c-5 -18 -6 -38 -1 -34 7 8 12 36 6 36 -2 0 -4 -1 -5 -2z"/>
<path d="M7476 11322 c-3 -5 1 -9 9 -9 8 0 12 4 9 9 -3 4 -7 8 -9 8 -2 0 -6
-4 -9 -8z"/>
<path d="M4286 11302 c-3 -5 1 -9 9 -9 8 0 12 4 9 9 -3 4 -7 8 -9 8 -2 0 -6
-4 -9 -8z"/>
<path d="M4290 11260 c0 -5 5 -10 11 -10 5 0 7 5 4 10 -3 6 -8 10 -11 10 -2 0
-4 -4 -4 -10z"/>
<path d="M7475 11151 c-3 -5 -2 -12 3 -15 5 -3 9 1 9 9 0 17 -3 19 -12 6z"/>
<path d="M4299 11148 c-5 -18 -6 -38 -1 -34 7 8 12 36 6 36 -2 0 -4 -1 -5 -2z"/>
<path d="M15986 11122 c-3 -5 1 -9 9 -9 8 0 12 4 9 9 -3 4 -7 8 -9 8 -2 0 -6
-4 -9 -8z"/>
<path d="M4290 11080 c0 -5 5 -10 11 -10 5 0 7 5 4 10 -3 6 -8 10 -11 10 -2 0
-4 -4 -4 -10z"/>
<path d="M4294 11016 c1 -8 5 -18 8 -22 4 -3 5 1 4 10 -1 8 -5 18 -8 22 -4 3
-5 -1 -4 -10z"/>
<path d="M4296 10922 c-3 -5 1 -9 9 -9 8 0 12 4 9 9 -3 4 -7 8 -9 8 -2 0 -6
-4 -9 -8z"/>
<path d="M7476 10922 c-3 -5 1 -9 9 -9 8 0 12 4 9 9 -3 4 -7 8 -9 8 -2 0 -6
-4 -9 -8z"/>
<path d="M15913 10913 c0 -9 4 -10 14 -2 7 6 13 12 13 14 0 1 -6 2 -13 2 -8 0
-14 -6 -14 -14z"/>
<path d="M12049 10883 c-13 -16 -12 -17 4 -4 9 7 17 15 17 17 0 8 -8 3 -21
-13z"/>
<path d="M4286 10822 c-3 -5 1 -9 9 -9 8 0 12 4 9 9 -3 4 -7 8 -9 8 -2 0 -6
-4 -9 -8z"/>
<path d="M11935 10789 c-4 -6 -5 -12 -2 -15 2 -3 7 2 10 11 7 17 1 20 -8 4z"/>
<path d="M7490 10759 c0 -5 -5 -7 -12 -3 -7 4 -8 3 -4 -5 4 -6 -46 -120 -113
-256 -117 -237 -121 -244 -153 -249 -66 -11 -184 -28 -213 -31 -16 -2 -43 -6
-60 -9 -16 -3 -64 -10 -106 -16 -41 -6 -84 -12 -95 -14 -11 -2 -47 -7 -79 -11
-33 -4 -67 -9 -75 -10 -8 -2 -51 -8 -95 -15 -44 -6 -91 -13 -105 -15 -56 -8
-125 -19 -132 -21 -5 -1 -13 -2 -20 -3 -7 0 35 -47 94 -103 58 -57 225 -219
370 -361 l265 -258 -34 -197 c-19 -108 -40 -235 -48 -282 -8 -47 -17 -94 -19
-105 -2 -11 -7 -40 -11 -65 -4 -25 -9 -54 -11 -65 -2 -11 -13 -76 -24 -145
-12 -69 -24 -133 -27 -144 -5 -18 70 18 382 184 39 20 122 64 185 97 63 33
168 88 232 122 l117 62 63 -34 c35 -19 122 -65 193 -102 72 -37 162 -85 200
-105 39 -21 120 -63 180 -95 61 -32 148 -78 194 -102 l84 -44 -6 38 c-3 21
-19 119 -36 218 -18 99 -34 195 -37 214 -3 18 -8 43 -10 55 -2 11 -20 116 -39
231 -20 116 -38 222 -41 236 -5 28 -9 24 144 173 l101 98 -59 -6 c-88 -10
-145 -18 -149 -22 -2 -2 -13 1 -24 7 -14 8 -18 8 -13 0 5 -7 -3 -11 -21 -12
-15 0 -41 -2 -58 -5 -16 -2 -58 -5 -92 -6 -35 -2 -63 -5 -63 -8 0 -4 -10 -6
-22 -7 -61 -3 -193 -16 -197 -19 -2 -2 -11 2 -19 9 -13 9 -14 9 -8 0 5 -10 -4
-13 -36 -14 -24 0 -50 -2 -58 -3 -8 -2 -55 -6 -105 -10 -49 -4 -91 -9 -94 -11
-2 -3 -10 0 -18 6 -7 6 -13 7 -13 2 0 -4 -33 -10 -73 -11 l-73 -3 1 38 c0 21
7 44 15 51 13 10 13 12 0 10 -12 -3 -14 15 -15 97 -1 55 2 107 6 116 5 9 3 21
-4 29 -9 10 -9 14 1 17 6 3 9 9 6 15 -9 15 -11 86 -3 100 4 7 2 19 -4 27 -9
11 -9 15 1 18 6 3 9 10 5 16 -11 18 -11 201 0 215 5 7 6 12 0 12 -5 0 -9 9
-10 20 -1 11 3 20 8 20 6 0 5 9 -2 23 -7 12 -12 22 -12 22 0 0 5 9 11 21 8 16
8 24 -1 34 -9 10 -9 14 0 17 9 3 10 10 4 21 -5 9 -10 19 -12 22 -1 3 3 14 9
26 8 16 8 24 -1 34 -9 10 -9 14 0 17 8 3 10 11 5 21 -4 9 -7 59 -7 110 1 50 0
92 -2 92 -2 0 -3 -5 -3 -11z"/>
<path d="M11706 10642 c-3 -5 1 -9 9 -9 8 0 12 4 9 9 -3 4 -7 8 -9 8 -2 0 -6
-4 -9 -8z"/>
<path d="M15719 10513 c-13 -16 -12 -17 4 -4 16 13 21 21 13 21 -2 0 -10 -8
-17 -17z"/>
<path d="M11494 10480 c0 -13 4 -16 10 -10 7 7 7 13 0 20 -6 6 -10 3 -10 -10z"/>
<path d="M15696 10462 c-3 -4 4 -9 15 -9 23 -2 25 3 4 10 -8 4 -16 3 -19 -1z"/>
<path d="M15665 10400 c-3 -6 1 -7 9 -4 18 7 21 14 7 14 -6 0 -13 -4 -16 -10z"/>
<path d="M11320 10377 c-14 -6 -27 -14 -30 -17 -7 -9 -43 -24 -52 -22 -5 1 -8
-2 -8 -7 0 -5 -45 -32 -100 -60 -55 -28 -100 -49 -100 -46 0 3 -10 -3 -22 -15
-12 -11 -25 -20 -30 -20 -4 0 -43 -16 -85 -36 -91 -42 -162 -74 -166 -73 -3 1
-59 -22 -80 -32 -10 -6 -22 -7 -27 -4 -6 4 -10 1 -10 -4 0 -6 -9 -11 -19 -11
-11 0 -23 -5 -27 -11 -3 -6 -15 -9 -25 -6 -11 3 -17 1 -14 -3 3 -5 -9 -12 -27
-15 -18 -4 -38 -12 -45 -17 -7 -5 -16 -7 -22 -4 -5 3 -11 2 -13 -2 -5 -14
-158 -60 -158 -48 0 7 -3 7 -8 1 -7 -10 -64 -33 -99 -40 -10 -1 -56 -13 -103
-25 -46 -12 -96 -23 -110 -25 -14 -2 -38 -8 -55 -13 -16 -5 -42 -8 -57 -8 -14
1 -24 -3 -21 -8 4 -5 -4 -7 -17 -3 -15 4 61 -76 189 -201 171 -166 213 -212
208 -227 -4 -11 -9 -42 -12 -70 -3 -27 -7 -57 -10 -65 -2 -8 -7 -31 -10 -50
-3 -19 -7 -46 -10 -60 -3 -14 -7 -38 -9 -55 -3 -16 -19 -111 -36 -210 -38
-218 -50 -292 -55 -325 -2 -14 -9 -54 -15 -89 -6 -35 -9 -65 -7 -67 2 -2 64
28 138 67 74 39 197 104 274 144 77 41 221 116 320 169 l179 95 31 -18 c16
-10 93 -51 170 -91 126 -66 239 -125 591 -311 62 -33 115 -59 119 -59 3 0 4 8
1 18 -3 9 -7 31 -10 47 -3 17 -21 125 -41 240 -20 116 -38 221 -40 235 -2 14
-18 106 -35 205 -17 99 -33 196 -36 215 -3 19 -8 38 -11 43 -2 4 31 42 75 85
526 513 661 646 659 648 -4 4 -45 11 -179 29 -65 9 -126 18 -136 20 -11 2 -43
6 -73 10 -30 3 -61 8 -69 10 -8 2 -35 7 -60 10 -25 2 -54 7 -65 9 -19 3 -112
17 -145 21 -23 3 -123 17 -140 20 -26 5 -125 19 -135 19 -5 1 -17 16 -26 33
-9 18 -21 38 -26 45 -6 7 -9 21 -8 31 2 9 3 17 2 16 -1 0 -13 -6 -27 -12z"/>
<path d="M15615 10300 c-3 -5 -1 -10 4 -10 6 0 11 5 11 10 0 6 -2 10 -4 10 -3
0 -8 -4 -11 -10z"/>
<path d="M9467 9739 c7 -7 15 -10 18 -7 3 3 -2 9 -12 12 -14 6 -15 5 -6 -5z"/>
<path d="M9435 9729 c-4 -6 -5 -12 -2 -15 2 -3 7 2 10 11 7 17 1 20 -8 4z"/>
<path d="M9293 9705 c0 -8 4 -12 9 -9 5 3 6 10 3 15 -9 13 -12 11 -12 -6z"/>
<path d="M9255 9701 c-3 -5 -2 -12 3 -15 5 -3 9 1 9 9 0 17 -3 19 -12 6z"/>
<path d="M9189 9683 c-13 -16 -12 -17 4 -4 9 7 17 15 17 17 0 8 -8 3 -21 -13z"/>
<path d="M9070 9681 c0 -6 4 -13 10 -16 6 -3 7 1 4 9 -7 18 -14 21 -14 7z"/>
<path d="M9010 9659 c0 -5 5 -7 10 -4 6 3 10 8 10 11 0 2 -4 4 -10 4 -5 0 -10
-5 -10 -11z"/>
<path d="M8913 9645 c0 -8 4 -12 9 -9 5 3 6 10 3 15 -9 13 -12 11 -12 -6z"/>
<path d="M8853 9635 c0 -8 4 -12 9 -9 4 3 8 9 8 15 0 5 -4 9 -8 9 -5 0 -9 -7
-9 -15z"/>
<path d="M15195 9631 c-3 -5 -2 -12 3 -15 5 -3 9 1 9 9 0 17 -3 19 -12 6z"/>
<path d="M15090 9499 c0 -5 5 -7 10 -4 6 3 10 8 10 11 0 2 -4 4 -10 4 -5 0
-10 -5 -10 -11z"/>
<path d="M15015 9411 c-3 -5 -2 -12 3 -15 5 -3 9 1 9 9 0 17 -3 19 -12 6z"/>
<path d="M14949 9323 c-13 -16 -12 -17 4 -4 9 7 17 15 17 17 0 8 -8 3 -21 -13z"/>
<path d="M4299 8548 c-5 -18 -6 -38 -1 -34 7 8 12 36 6 36 -2 0 -4 -1 -5 -2z"/>
<path d="M4295 8300 c-3 -5 -1 -10 4 -10 6 0 11 5 11 10 0 6 -2 10 -4 10 -3 0
-8 -4 -11 -10z"/>
<path d="M4299 8228 c-5 -18 -6 -38 -1 -34 7 8 12 36 6 36 -2 0 -4 -1 -5 -2z"/>
<path d="M6810 7793 c-107 -218 -209 -424 -226 -457 -32 -64 -42 -70 -133 -80
-39 -4 -194 -27 -281 -41 -21 -3 -110 -16 -210 -30 -14 -2 -45 -6 -70 -10 -25
-4 -56 -8 -70 -10 -264 -38 -298 -44 -283 -53 6 -4 159 -152 341 -330 181
-177 338 -330 348 -340 45 -41 45 -43 24 -158 -10 -60 -22 -125 -25 -144 -3
-19 -7 -46 -10 -60 -3 -14 -7 -38 -10 -55 -3 -16 -7 -39 -9 -50 -2 -11 -7 -42
-10 -69 -4 -27 -9 -52 -10 -55 -2 -3 -7 -28 -10 -55 -4 -27 -13 -83 -21 -125
-8 -42 -16 -92 -19 -111 -3 -19 -7 -44 -10 -55 -2 -11 -7 -45 -11 -75 -6 -46
-5 -53 6 -44 8 6 124 69 259 139 135 70 277 144 315 165 39 20 127 67 198 104
l127 67 158 -82 c86 -45 194 -101 238 -125 45 -24 84 -44 86 -44 3 0 4 35 3
78 -1 42 2 83 8 90 5 6 5 12 0 12 -5 0 -9 9 -10 20 -1 11 3 20 8 20 6 0 6 6 0
18 -5 9 -10 19 -12 22 -1 3 3 14 9 26 8 16 8 24 -1 34 -9 10 -9 14 0 17 9 3
10 10 4 21 -5 9 -10 19 -12 22 -1 3 3 14 9 26 8 16 8 24 0 32 -9 9 -7 16 8 27
12 10 14 14 4 13 -11 -3 -14 14 -15 90 0 77 2 92 15 92 9 0 22 -6 30 -12 12
-11 12 -10 1 5 -12 15 -10 17 25 18 22 0 50 2 64 4 14 2 51 5 83 6 63 3 63 4
48 71 l-9 38 305 297 c167 164 333 326 369 360 52 49 61 62 47 66 -23 7 -75
15 -138 22 -27 3 -61 8 -75 10 -45 8 -258 40 -340 51 -19 2 -51 7 -70 10 -36
6 -56 9 -124 18 -71 10 -121 17 -181 26 -33 6 -63 10 -68 10 -4 0 -109 207
-234 460 -125 253 -229 460 -232 460 -3 0 -94 -179 -201 -397z"/>
<path d="M10183 8068 c-34 -68 -136 -275 -227 -460 -104 -209 -173 -339 -184
-342 -16 -5 -50 -10 -147 -22 -22 -2 -51 -7 -65 -10 -14 -2 -38 -6 -55 -8 -16
-2 -50 -7 -75 -11 -25 -4 -54 -8 -65 -10 -33 -4 -118 -17 -145 -21 -21 -3
-286 -41 -345 -49 -54 -7 -99 -16 -102 -19 -2 -2 2 -10 10 -17 8 -8 154 -151
325 -318 172 -167 309 -308 306 -313 -4 -6 4 -5 16 2 12 7 43 13 69 15 25 2
53 6 61 9 38 15 66 12 83 -8 10 -12 48 -51 84 -88 35 -37 62 -72 58 -78 -4 -6
-3 -10 2 -9 12 3 43 -12 43 -21 0 -4 26 -34 58 -67 168 -175 172 -180 166
-199 -5 -16 -4 -17 6 -4 8 11 13 12 17 3 2 -7 31 -40 63 -74 33 -34 57 -67 53
-73 -3 -6 -3 -8 2 -4 10 9 37 -11 30 -22 -2 -4 7 -5 20 -2 15 2 25 0 25 -7 0
-6 6 -11 14 -11 8 0 39 -13 68 -28 29 -16 107 -57 173 -92 66 -34 152 -79 190
-100 39 -20 129 -68 200 -105 72 -37 154 -81 183 -97 29 -17 55 -28 57 -26 3
3 -37 255 -69 433 -3 17 -8 47 -11 69 -4 21 -9 48 -11 60 -2 11 -6 35 -9 51
-19 119 -47 278 -55 318 -6 27 -10 57 -10 66 0 16 99 118 350 361 222 215 380
373 376 377 -2 2 -66 13 -142 24 -77 11 -150 21 -164 24 -44 7 -174 25 -210
30 -19 2 -53 7 -75 10 -22 4 -51 8 -65 10 -14 2 -88 13 -165 24 -77 12 -151
22 -165 24 -28 4 -3 -43 -301 560 -98 197 -179 361 -182 363 -2 2 -31 -51 -64
-118z"/>
<path d="M13766 8178 c3 -5 10 -6 15 -3 13 9 11 12 -6 12 -8 0 -12 -4 -9 -9z"/>
<path d="M13393 8013 c-46 -92 -81 -168 -79 -170 4 -4 167 107 198 134 9 8 22
12 29 7 8 -4 10 -3 5 5 -4 6 -1 14 7 17 12 4 7 22 -26 90 -23 46 -44 84 -47
84 -3 0 -42 -75 -87 -167z"/>
<path d="M13676 8113 c-6 -14 -5 -15 5 -6 7 7 10 15 7 18 -3 3 -9 -2 -12 -12z"/>
<path d="M4286 8102 c-3 -5 1 -9 9 -9 8 0 12 4 9 9 -3 4 -7 8 -9 8 -2 0 -6 -4
-9 -8z"/>
<path d="M4290 8060 c0 -5 5 -10 11 -10 5 0 7 5 4 10 -3 6 -8 10 -11 10 -2 0
-4 -4 -4 -10z"/>
<path d="M4293 7925 c0 -8 4 -12 9 -9 5 3 6 10 3 15 -9 13 -12 11 -12 -6z"/>
<path d="M4294 7876 c1 -8 5 -18 8 -22 4 -3 5 1 4 10 -1 8 -5 18 -8 22 -4 3
-5 -1 -4 -10z"/>
<path d="M4294 7816 c1 -8 5 -18 8 -22 4 -3 5 1 4 10 -1 8 -5 18 -8 22 -4 3
-5 -1 -4 -10z"/>
<path d="M13190 7759 c0 -5 5 -7 10 -4 6 3 10 8 10 11 0 2 -4 4 -10 4 -5 0
-10 -5 -10 -11z"/>
<path d="M13153 7745 c0 -8 4 -12 9 -9 5 3 6 10 3 15 -9 13 -12 11 -12 -6z"/>
<path d="M4284 7722 c4 -3 14 -7 22 -8 9 -1 13 0 10 4 -4 3 -14 7 -22 8 -9 1
-13 0 -10 -4z"/>
<path d="M13000 7640 c-9 -6 -10 -10 -3 -10 6 0 15 5 18 10 8 12 4 12 -15 0z"/>
<path d="M4290 7620 c0 -5 5 -10 11 -10 5 0 7 5 4 10 -3 6 -8 10 -11 10 -2 0
-4 -4 -4 -10z"/>
<path d="M12933 7605 c0 -8 4 -12 9 -9 5 3 6 10 3 15 -9 13 -12 11 -12 -6z"/>
<path d="M4290 7580 c0 -5 5 -10 11 -10 5 0 7 5 4 10 -3 6 -8 10 -11 10 -2 0
-4 -4 -4 -10z"/>
<path d="M4295 7500 c3 -5 8 -10 11 -10 2 0 4 5 4 10 0 6 -5 10 -11 10 -5 0
-7 -4 -4 -10z"/>
<path d="M4293 7465 c0 -8 4 -12 9 -9 5 3 6 10 3 15 -9 13 -12 11 -12 -6z"/>
<path d="M4293 7405 c0 -8 4 -12 9 -9 5 3 6 10 3 15 -9 13 -12 11 -12 -6z"/>
<path d="M13084 7413 c3 -7 -8 -43 -26 -80 -18 -37 -32 -69 -33 -70 0 -1 -16
-5 -35 -8 -19 -3 -46 -7 -60 -10 -14 -2 -45 -7 -70 -10 -25 -4 -133 -19 -240
-35 -107 -16 -217 -32 -245 -35 -27 -4 -77 -10 -110 -15 -33 -5 -78 -12 -100
-15 -50 -8 -69 -11 -124 -20 l-44 -7 96 -92 c424 -407 645 -630 642 -646 -2
-10 -6 -35 -9 -56 -9 -56 -36 -215 -42 -244 -3 -14 -7 -38 -9 -55 -3 -16 -7
-41 -10 -55 -3 -14 -8 -42 -11 -64 -3 -21 -8 -48 -10 -60 -2 -11 -7 -37 -10
-56 -3 -19 -12 -71 -19 -115 -8 -44 -17 -98 -21 -120 -3 -22 -11 -70 -18 -107
-14 -76 -19 -75 79 -23 33 18 110 58 170 90 61 32 146 77 190 100 44 23 139
73 210 110 72 37 158 83 192 101 l62 34 43 -24 c24 -13 111 -58 193 -101 83
-43 182 -94 220 -115 39 -21 124 -66 190 -100 66 -34 153 -80 193 -102 81 -45
81 -45 62 53 -6 30 -13 70 -16 89 -2 19 -7 46 -10 60 -3 13 -7 40 -10 59 -4
35 -10 67 -19 111 -5 23 -15 85 -31 184 -6 40 -13 53 -51 88 -12 12 -20 25
-17 30 3 5 0 7 -6 6 -7 -2 -17 5 -23 15 -7 11 -26 33 -42 50 -17 18 -50 56
-75 86 -25 30 -51 60 -58 68 -7 7 -11 13 -8 13 2 0 -9 13 -25 30 -18 18 -27
35 -23 42 4 7 4 10 -1 6 -4 -4 -14 -3 -22 3 -16 14 -18 33 -1 23 7 -4 8 -3 4
5 -4 6 -11 9 -16 6 -5 -3 -17 7 -27 22 -10 15 -23 33 -29 38 -37 35 -94 116
-88 126 4 7 3 9 -3 6 -6 -4 -24 10 -39 30 -41 52 -216 266 -231 281 -7 7 -29
34 -50 60 -21 26 -41 49 -45 50 -5 2 -8 7 -8 11 0 4 -29 38 -65 76 -35 38 -61
73 -58 79 3 6 3 8 -2 4 -9 -9 -61 52 -57 67 2 5 1 7 -3 3 -4 -4 -18 5 -31 20
-51 57 -71 78 -94 97 -13 11 -20 15 -16 8z"/>
<path d="M4295 7300 c3 -5 8 -10 11 -10 2 0 4 5 4 10 0 6 -5 10 -11 10 -5 0
-7 -4 -4 -10z"/>
<path d="M4293 6931 c1 -207 -1 -337 -7 -334 -5 4 -6 0 0 -8 4 -8 9 -84 11
-169 1 -85 3 -210 4 -277 0 -67 -2 -126 -5 -131 -3 -6 -2 -14 4 -17 8 -5 7
-12 -2 -23 -7 -9 -8 -13 -3 -10 6 4 10 -41 11 -125 1 -73 2 -160 3 -193 l1
-61 73 -36 c39 -20 123 -64 186 -97 62 -34 115 -59 118 -57 4 4 -2 41 -21 142
-2 11 -7 40 -10 65 -4 25 -11 65 -16 90 -5 25 -12 61 -14 80 -3 19 -19 114
-35 210 -17 96 -33 193 -37 215 -3 22 -10 60 -15 84 -5 24 -12 63 -15 86 l-5
42 241 234 c133 129 298 289 367 357 69 67 124 124 122 126 -2 2 -24 7 -49 10
-25 4 -56 9 -70 11 -27 5 -65 10 -145 21 -27 3 -52 8 -55 9 -3 2 -37 6 -75 10
-39 4 -72 9 -75 10 -3 2 -30 6 -60 10 -30 3 -62 8 -70 10 -8 2 -39 7 -69 10
-30 4 -63 9 -75 11 -20 4 -50 8 -136 19 -25 3 -53 8 -63 11 -16 5 -17 -14 -14
-335z"/>
<path d="M9276 6458 c3 -4 11 -5 19 -1 21 7 19 12 -4 10 -11 0 -18 -5 -15 -9z"/>
<path d="M8650 6379 c0 -5 5 -7 10 -4 6 3 10 8 10 11 0 2 -4 4 -10 4 -5 0 -10
-5 -10 -11z"/>
<path d="M8390 6360 c0 -5 5 -10 11 -10 5 0 7 5 4 10 -3 6 -8 10 -11 10 -2 0
-4 -4 -4 -10z"/>
<path d="M8086 6342 c-3 -5 1 -9 9 -9 8 0 12 4 9 9 -3 4 -7 8 -9 8 -2 0 -6 -4
-9 -8z"/>
<path d="M14330 5945 c0 -5 5 -17 10 -25 5 -8 10 -10 10 -5 0 6 -5 17 -10 25
-5 8 -10 11 -10 5z"/>
<path d="M14413 5847 c0 -8 6 -14 14 -14 9 0 10 4 2 14 -6 7 -12 13 -14 13 -1
0 -2 -6 -2 -13z"/>
<path d="M14470 5801 c0 -10 29 -36 34 -30 1 2 -6 12 -16 22 -10 9 -18 13 -18
8z"/>
<path d="M14540 5740 c-9 -6 -10 -10 -3 -10 6 0 15 5 18 10 8 12 4 12 -15 0z"/>
<path d="M10370 5706 c0 -2 7 -7 16 -10 8 -3 12 -2 9 4 -6 10 -25 14 -25 6z"/>
<path d="M14655 5620 c-3 -5 -1 -10 4 -10 6 0 11 5 11 10 0 6 -2 10 -4 10 -3
0 -8 -4 -11 -10z"/>
<path d="M10476 5578 c3 -5 10 -6 15 -3 13 9 11 12 -6 12 -8 0 -12 -4 -9 -9z"/>
<path d="M14695 5580 c3 -5 8 -10 11 -10 2 0 4 5 4 10 0 6 -5 10 -11 10 -5 0
-7 -4 -4 -10z"/>
<path d="M14730 5559 c0 -5 5 -7 10 -4 6 3 10 8 10 11 0 2 -4 4 -10 4 -5 0
-10 -5 -10 -11z"/>
<path d="M4310 5521 c0 -6 4 -12 8 -15 5 -3 9 1 9 9 0 8 -4 15 -9 15 -4 0 -8
-4 -8 -9z"/>
<path d="M14766 5498 c3 -5 10 -6 15 -3 13 9 11 12 -6 12 -8 0 -12 -4 -9 -9z"/>
<path d="M7476 5482 c-3 -5 1 -9 9 -9 8 0 12 4 9 9 -3 4 -7 8 -9 8 -2 0 -6 -4
-9 -8z"/>
<path d="M14833 5455 c0 -8 4 -12 9 -9 5 3 6 10 3 15 -9 13 -12 11 -12 -6z"/>
<path d="M4315 5411 c-3 -5 -2 -12 3 -15 5 -3 9 1 9 9 0 17 -3 19 -12 6z"/>
<path d="M5671 5217 c-243 -496 -394 -797 -401 -797 -11 0 -604 -86 -660 -96
-14 -2 -47 -7 -75 -10 -27 -3 -84 -11 -125 -17 -70 -11 -75 -14 -72 -36 3 -17
0 -21 -10 -16 -10 6 -11 5 0 -6 6 -7 12 -21 12 -31 0 -11 12 -30 26 -43 14
-13 158 -153 321 -312 162 -158 298 -289 302 -291 5 -1 2 -35 -5 -75 -6 -40
-15 -88 -18 -107 -8 -55 -37 -222 -42 -250 -3 -14 -7 -41 -10 -60 -2 -19 -7
-42 -9 -50 -3 -8 -7 -33 -10 -55 -4 -22 -8 -47 -10 -55 -2 -8 -7 -37 -10 -65
-4 -27 -8 -57 -10 -65 -2 -8 -7 -31 -10 -50 -16 -98 -26 -157 -30 -177 -6 -24
-10 -26 250 112 44 23 139 73 210 110 72 38 177 93 235 124 58 31 131 69 162
85 l56 29 128 -68 c123 -65 177 -93 409 -215 55 -29 156 -82 225 -117 69 -36
131 -70 139 -76 11 -9 12 -3 7 38 -4 28 -9 59 -11 70 -5 23 -13 65 -21 115 -3
19 -7 46 -10 60 -6 34 -51 296 -58 340 -3 19 -8 45 -10 56 -2 12 -7 39 -10 60
-4 22 -8 46 -11 54 -2 8 -6 34 -9 57 -3 23 -10 69 -17 102 l-12 61 95 93 c52
50 217 211 367 357 149 145 271 267 271 270 0 4 -71 16 -157 28 -87 12 -167
24 -178 26 -11 2 -42 7 -70 10 -27 4 -93 13 -145 21 -52 8 -113 16 -135 19
-22 3 -71 10 -110 16 -38 6 -81 13 -95 15 -14 2 -47 6 -75 10 l-50 7 -84 171
c-140 286 -370 749 -373 752 -2 2 -32 -56 -67 -128z"/>
<path d="M12050 5027 c-84 -171 -185 -377 -224 -457 -39 -80 -72 -147 -73
-148 -3 -7 -79 -21 -139 -27 -33 -4 -66 -13 -74 -22 -8 -9 -10 -13 -3 -9 14 8
55 -42 46 -58 -3 -6 -3 -8 2 -4 11 11 36 -12 28 -25 -3 -5 -2 -7 4 -4 6 4 25
-13 44 -36 19 -23 41 -51 49 -61 8 -10 23 -26 32 -34 9 -9 14 -20 11 -26 -3
-6 -3 -8 2 -4 4 4 17 -2 27 -15 10 -12 42 -48 71 -80 89 -102 96 -111 91 -119
-3 -5 -1 -7 4 -6 15 4 73 -63 65 -75 -3 -6 -1 -7 4 -4 12 8 129 -121 127 -140
-1 -7 2 -11 6 -8 8 5 89 -81 250 -265 62 -71 151 -170 181 -202 20 -21 35 -38
33 -38 -3 0 15 -19 38 -43 97 -98 213 -231 210 -241 -2 -6 -1 -8 3 -4 9 9 91
-81 87 -96 -2 -6 -1 -8 3 -4 8 8 101 -91 97 -104 -1 -5 2 -7 7 -4 5 4 17 -4
25 -16 19 -27 30 -19 17 13 -4 13 -11 43 -14 66 -4 22 -8 52 -11 65 -3 12 -8
39 -11 58 -2 19 -7 46 -10 60 -2 14 -11 66 -19 115 -19 114 -65 382 -71 415
-3 14 -8 43 -11 65 l-6 40 263 255 c445 433 470 458 462 463 -5 3 -29 8 -53
11 -25 4 -56 9 -70 11 -46 9 -354 53 -420 61 -19 2 -51 6 -70 10 -19 3 -46 8
-60 9 -38 6 -229 33 -275 40 -22 3 -46 8 -52 10 -7 2 -57 96 -112 207 -118
242 -351 711 -355 715 -1 1 -71 -138 -156 -310z"/>
<path d="M7470 5279 c0 -5 5 -7 10 -4 6 3 10 8 10 11 0 2 -4 4 -10 4 -5 0 -10
-5 -10 -11z"/>
<path d="M10802 5224 c10 -10 20 -16 22 -13 3 3 -5 11 -17 18 -21 13 -21 12
-5 -5z"/>
<path d="M15110 5199 c0 -5 5 -7 10 -4 6 3 10 8 10 11 0 2 -4 4 -10 4 -5 0
-10 -5 -10 -11z"/>
<path d="M10850 5179 c0 -5 5 -7 10 -4 6 3 10 8 10 11 0 2 -4 4 -10 4 -5 0
-10 -5 -10 -11z"/>
<path d="M10925 5060 c-3 -6 1 -7 9 -4 18 7 21 14 7 14 -6 0 -13 -4 -16 -10z"/>
<path d="M4315 5040 c-3 -5 -1 -10 4 -10 6 0 11 5 11 10 0 6 -2 10 -4 10 -3 0
-8 -4 -11 -10z"/>
<path d="M15217 4887 c-41 -83 -110 -224 -153 -312 -43 -88 -79 -161 -79 -162
-1 -2 -28 -7 -105 -18 -75 -11 -93 -14 -140 -20 -25 -3 -56 -8 -70 -10 -34 -6
-214 -32 -270 -40 -25 -3 -56 -8 -70 -10 -72 -11 -179 -26 -205 -29 -55 -7
-154 -22 -162 -25 -2 -1 236 -236 423 -418 188 -181 259 -251 286 -280 l28
-29 -14 -74 c-8 -41 -17 -95 -21 -120 -4 -25 -11 -67 -16 -95 -5 -27 -12 -66
-15 -85 -3 -19 -12 -71 -19 -115 -8 -44 -17 -93 -20 -110 -2 -16 -7 -39 -9
-50 -2 -11 -7 -42 -10 -68 -4 -27 -9 -59 -12 -70 -2 -12 -7 -38 -10 -57 -3
-19 -7 -40 -9 -47 -2 -6 -7 -37 -11 -69 l-6 -57 33 20 c19 11 95 52 169 90 74
39 169 88 210 110 41 22 129 68 195 103 66 34 162 85 212 112 l93 49 107 -57
c114 -60 226 -119 358 -189 44 -23 157 -82 250 -130 94 -49 176 -93 184 -99
11 -9 12 -1 7 44 -7 56 -13 96 -21 140 -9 43 -13 66 -19 101 -3 19 -17 101
-31 183 -14 81 -27 160 -30 175 -31 187 -40 241 -50 296 -4 22 -9 48 -11 57
-2 11 48 66 136 151 l138 134 -40 46 c-22 26 -37 51 -33 57 4 6 -1 7 -12 3
-10 -3 -15 -3 -11 2 4 4 -1 15 -11 24 -17 15 -116 128 -157 180 -10 13 -29 34
-42 47 -13 13 -20 29 -17 34 4 6 2 9 -4 8 -14 -4 -92 82 -85 93 3 5 -2 6 -10
3 -9 -3 -16 -2 -16 3 0 5 -16 24 -35 43 -19 19 -35 41 -35 48 0 7 -4 10 -10 7
-5 -3 -10 -2 -10 4 0 6 -6 8 -14 5 -10 -4 -22 8 -35 34 -11 23 -25 44 -31 47
-6 4 -7 12 -4 18 4 7 4 9 -1 5 -7 -7 -82 64 -151 143 -12 13 -38 39 -58 58
-20 18 -33 37 -30 42 3 5 -3 6 -12 2 -14 -5 -16 -3 -11 11 4 9 3 15 -2 11 -5
-3 -65 49 -133 116 -68 66 -130 125 -139 130 -14 7 -29 -16 -92 -144z"/>
<path d="M11056 4941 c-3 -5 2 -15 12 -22 15 -12 16 -12 5 2 -7 9 -10 19 -6
22 3 4 4 7 0 7 -3 0 -8 -4 -11 -9z"/>
<path d="M7476 4922 c-3 -5 1 -9 9 -9 8 0 12 4 9 9 -3 4 -7 8 -9 8 -2 0 -6 -4
-9 -8z"/>
<path d="M11095 4900 c-3 -5 -1 -10 4 -10 6 0 11 5 11 10 0 6 -2 10 -4 10 -3
0 -8 -4 -11 -10z"/>
<path d="M7475 4751 c-3 -5 -2 -12 3 -15 5 -3 9 1 9 9 0 17 -3 19 -12 6z"/>
<path d="M4329 4643 c-13 -16 -12 -17 4 -4 9 7 17 15 17 17 0 8 -8 3 -21 -13z"/>
<path d="M11330 4620 c0 -5 5 -10 11 -10 5 0 7 5 4 10 -3 6 -8 10 -11 10 -2 0
-4 -4 -4 -10z"/>
<path d="M4334 4596 c1 -8 5 -18 8 -22 4 -3 5 1 4 10 -1 8 -5 18 -8 22 -4 3
-5 -1 -4 -10z"/>
<path d="M11355 4601 c-3 -5 -2 -12 3 -15 5 -3 9 1 9 9 0 17 -3 19 -12 6z"/>
<path d="M4330 4460 c0 -5 5 -10 11 -10 5 0 7 5 4 10 -3 6 -8 10 -11 10 -2 0
-4 -4 -4 -10z"/>
<path d="M7476 4442 c-3 -5 1 -9 9 -9 8 0 12 4 9 9 -3 4 -7 8 -9 8 -2 0 -6 -4
-9 -8z"/>
<path d="M11516 4398 c3 -5 10 -6 15 -3 13 9 11 12 -6 12 -8 0 -12 -4 -9 -9z"/>
<path d="M7475 4260 c-3 -6 1 -7 9 -4 18 7 21 14 7 14 -6 0 -13 -4 -16 -10z"/>
<path d="M7476 4122 c-3 -5 1 -9 9 -9 8 0 12 4 9 9 -3 4 -7 8 -9 8 -2 0 -6 -4
-9 -8z"/>
<path d="M4346 4102 c-3 -5 1 -9 9 -9 8 0 12 4 9 9 -3 4 -7 8 -9 8 -2 0 -6 -4
-9 -8z"/>
<path d="M7476 3802 c-3 -5 1 -9 9 -9 8 0 12 4 9 9 -3 4 -7 8 -9 8 -2 0 -6 -4
-9 -8z"/>
<path d="M4345 3619 c-3 -4 2 -6 10 -5 21 3 28 13 10 13 -9 0 -18 -4 -20 -8z"/>
<path d="M16650 3539 c0 -5 5 -7 10 -4 6 3 10 8 10 11 0 2 -4 4 -10 4 -5 0
-10 -5 -10 -11z"/>
<path d="M7476 3482 c-3 -5 1 -9 9 -9 8 0 12 4 9 9 -3 4 -7 8 -9 8 -2 0 -6 -4
-9 -8z"/>
<path d="M16770 3381 c0 -6 4 -13 10 -16 6 -3 7 1 4 9 -7 18 -14 21 -14 7z"/>
<path d="M16795 3341 c-3 -5 -2 -12 3 -15 5 -3 9 1 9 9 0 17 -3 19 -12 6z"/>
<path d="M16870 3219 c0 -5 5 -7 10 -4 6 3 10 8 10 11 0 2 -4 4 -10 4 -5 0
-10 -5 -10 -11z"/>
<path d="M7476 3162 c-3 -5 1 -9 9 -9 8 0 12 4 9 9 -3 4 -7 8 -9 8 -2 0 -6 -4
-9 -8z"/>
<path d="M16927 3139 c7 -7 15 -10 18 -7 3 3 -2 9 -12 12 -14 6 -15 5 -6 -5z"/>
<path d="M16990 3059 c0 -5 5 -7 10 -4 6 3 10 8 10 11 0 2 -4 4 -10 4 -5 0
-10 -5 -10 -11z"/>
<path d="M4375 3001 c-3 -5 -2 -12 3 -15 5 -3 9 1 9 9 0 17 -3 19 -12 6z"/>
<path d="M7476 2842 c-3 -5 1 -9 9 -9 8 0 12 4 9 9 -3 4 -7 8 -9 8 -2 0 -6 -4
-9 -8z"/>
<path d="M17126 2778 c3 -5 10 -6 15 -3 13 9 11 12 -6 12 -8 0 -12 -4 -9 -9z"/>
<path d="M17169 2683 c-13 -16 -12 -17 4 -4 16 13 21 21 13 21 -2 0 -10 -8
-17 -17z"/>
<path d="M17193 2569 c-2 -23 3 -25 10 -4 4 8 3 16 -1 19 -4 3 -9 -4 -9 -15z"/>
<path d="M13213 2525 c0 -8 4 -12 9 -9 5 3 6 10 3 15 -9 13 -12 11 -12 -6z"/>
<path d="M7476 2522 c-3 -5 1 -9 9 -9 8 0 12 4 9 9 -3 4 -7 8 -9 8 -2 0 -6 -4
-9 -8z"/>
<path d="M13250 2479 c0 -5 5 -7 10 -4 6 3 10 8 10 11 0 2 -4 4 -10 4 -5 0
-10 -5 -10 -11z"/>
<path d="M13995 2144 c-93 -190 -172 -348 -175 -351 -3 -4 0 -3 7 1 7 4 17 -3
24 -15 6 -12 23 -32 36 -45 15 -14 22 -28 17 -35 -4 -7 -3 -9 3 -6 5 4 32 -19
59 -49 27 -31 64 -70 82 -87 18 -17 30 -37 27 -44 -3 -8 0 -11 6 -8 12 8 41
-14 33 -26 -3 -5 0 -9 6 -9 19 0 101 -90 94 -102 -4 -7 -3 -8 4 -4 13 8 52
-23 52 -41 0 -7 4 -12 9 -10 7 2 45 -32 162 -145 21 -21 41 -38 45 -38 4 0 22
-15 40 -32 18 -18 51 -46 73 -63 22 -16 38 -36 36 -43 -3 -7 0 -10 5 -7 12 7
100 -53 100 -68 0 -6 3 -7 6 -4 4 4 21 -4 38 -16 35 -25 110 -67 174 -98 l44
-20 32 33 c18 18 162 159 319 312 157 153 284 282 282 287 -3 4 -33 10 -67 14
-35 4 -72 9 -83 11 -10 2 -37 6 -60 9 -22 3 -103 15 -180 26 -77 12 -153 23
-170 25 -16 2 -46 6 -65 9 -19 3 -53 8 -75 11 -22 3 -80 12 -130 19 -49 8
-110 17 -135 20 -25 4 -46 10 -48 13 -2 4 -105 213 -230 464 l-227 457 -170
-345z"/>
<path d="M17210 2461 c0 -6 4 -13 10 -16 6 -3 7 1 4 9 -7 18 -14 21 -14 7z"/>
<path d="M4396 2353 c-6 -14 -5 -15 5 -6 7 7 10 15 7 18 -3 3 -9 -2 -12 -12z"/>
<path d="M4444 2330 c-10 -19 -19 -37 -19 -40 0 -3 -6 -14 -12 -26 -7 -12 -10
-49 -8 -90 6 -120 18 -416 19 -486 1 -36 5 -64 9 -61 5 3 7 -10 6 -29 -2 -18
0 -38 3 -43 3 -6 11 -37 18 -70 17 -80 16 -78 23 -95 4 -8 16 -42 28 -75 12
-33 26 -65 31 -72 5 -7 7 -22 3 -35 -5 -17 -4 -19 4 -8 8 12 11 11 17 -5 19
-53 154 -216 206 -250 9 -5 36 -24 59 -40 47 -33 171 -95 189 -95 6 0 8 -5 4
-12 -4 -6 -3 -8 3 -5 10 6 101 -21 113 -33 3 -3 12 -6 20 -7 8 -1 29 -4 45 -8
17 -3 58 -12 91 -19 l62 -12 168 164 c93 90 225 218 293 285 l123 122 -33 7
c-19 4 -54 9 -79 12 -25 3 -92 12 -150 21 -58 9 -121 18 -140 21 -19 2 -48 6
-65 9 -16 3 -46 7 -65 10 -174 24 -257 36 -270 40 -8 2 -42 7 -75 10 -33 4
-78 10 -100 13 l-40 7 -231 465 -231 465 -19 -35z"/>
<path d="M13370 2340 c0 -5 5 -10 11 -10 5 0 7 5 4 10 -3 6 -8 10 -11 10 -2 0
-4 -4 -4 -10z"/>
<path d="M17216 2273 c-6 -14 -5 -15 5 -6 7 7 10 15 7 18 -3 3 -9 -2 -12 -12z"/>
<path d="M17180 2246 c0 -2 8 -10 18 -17 15 -13 16 -12 3 4 -13 16 -21 21 -21
13z"/>
<path d="M7406 2042 c-3 -5 1 -9 9 -9 8 0 12 4 9 9 -3 4 -7 8 -9 8 -2 0 -6 -4
-9 -8z"/>
<path d="M13627 2039 c7 -7 15 -10 18 -7 3 3 -2 9 -12 12 -14 6 -15 5 -6 -5z"/>
<path d="M17147 2039 c7 -7 15 -10 18 -7 3 3 -2 9 -12 12 -14 6 -15 5 -6 -5z"/>
<path d="M7393 1983 c4 -3 1 -13 -6 -22 -11 -14 -10 -14 5 -2 16 12 16 31 1
31 -4 0 -3 -3 0 -7z"/>
<path d="M13690 1966 c0 -2 7 -7 16 -10 8 -3 12 -2 9 4 -6 10 -25 14 -25 6z"/>
<path d="M13726 1922 c-3 -5 1 -9 9 -9 8 0 12 4 9 9 -3 4 -7 8 -9 8 -2 0 -6
-4 -9 -8z"/>
<path d="M17112 1923 c3 -15 -14 -63 -23 -63 -5 0 -9 -5 -9 -11 0 -17 -130
-283 -142 -290 -6 -4 -38 -10 -72 -14 -34 -4 -68 -8 -76 -10 -17 -3 -19 -4
-310 -45 -236 -34 -263 -38 -300 -45 -14 -2 -45 -7 -70 -10 -25 -3 -78 -11
-119 -17 l-73 -11 98 -94 c55 -52 167 -162 251 -244 147 -145 153 -149 171
-132 10 10 36 32 58 50 21 17 50 42 64 55 13 12 42 38 63 56 21 17 37 32 34
32 -3 0 18 24 45 53 27 28 77 88 110 132 33 44 65 79 71 77 7 -2 9 0 5 4 -7 6
18 62 33 74 3 3 26 41 49 85 24 44 49 83 54 87 6 4 7 8 2 8 -4 0 -1 11 8 25 9
14 14 25 10 25 -4 0 -2 6 4 13 6 7 29 59 51 115 29 76 36 102 25 102 -8 0 -13
-3 -12 -7z"/>
<path d="M7320 1800 c-9 -6 -10 -10 -3 -10 6 0 15 5 18 10 8 12 4 12 -15 0z"/>
<path d="M7285 1740 c-3 -6 1 -7 9 -4 18 7 21 14 7 14 -6 0 -13 -4 -16 -10z"/>
<path d="M7160 1540 c-8 -4 -42 -11 -75 -15 -32 -4 -68 -9 -79 -11 -11 -2 -42
-6 -70 -9 -28 -3 -58 -8 -66 -10 -16 -4 -65 -11 -140 -20 -25 -3 -70 -10 -100
-15 -55 -9 -118 -18 -175 -26 -39 -5 -174 -24 -200 -29 -11 -2 -24 -4 -30 -4
-5 -1 77 -86 184 -190 l194 -188 41 27 c22 16 45 26 51 23 5 -4 7 -3 3 2 -11
11 29 38 44 29 6 -4 8 -3 4 4 -9 14 32 42 53 35 12 -4 13 -3 3 5 -10 7 -7 13
15 27 15 10 34 24 41 31 7 7 34 30 60 51 25 21 57 49 69 61 13 14 27 21 34 16
8 -5 9 -3 4 5 -9 15 63 93 78 84 6 -3 7 -1 4 4 -8 13 48 85 58 75 5 -4 5 -2 1
5 -3 6 1 16 10 21 9 5 13 12 8 15 -5 3 -16 2 -24 -3z"/>
<path d="M6490 980 c0 -5 5 -10 11 -10 5 0 7 5 4 10 -3 6 -8 10 -11 10 -2 0
-4 -4 -4 -10z"/>
<path d="M6430 939 c0 -5 5 -7 10 -4 6 3 10 8 10 11 0 2 -4 4 -10 4 -5 0 -10
-5 -10 -11z"/>
<path d="M16376 913 c-6 -14 -5 -15 5 -6 7 7 10 15 7 18 -3 3 -9 -2 -12 -12z"/>
<path d="M6199 833 c-13 -16 -12 -17 4 -4 16 13 21 21 13 21 -2 0 -10 -8 -17
-17z"/>
<path d="M6076 793 c-6 -14 -5 -15 5 -6 7 7 10 15 7 18 -3 3 -9 -2 -12 -12z"/>
<path d="M16136 778 c3 -4 11 -5 19 -1 21 7 19 12 -4 10 -11 0 -18 -5 -15 -9z"/>
<path d="M15166 718 c3 -5 10 -6 15 -3 13 9 11 12 -6 12 -8 0 -12 -4 -9 -9z"/>
<path d="M5571 707 c2 -1 13 -9 24 -17 19 -14 19 -14 6 3 -7 9 -18 17 -24 17
-6 0 -8 -1 -6 -3z"/>
<path d="M15356 667 c3 -10 9 -15 12 -12 3 3 0 11 -7 18 -10 9 -11 8 -5 -6z"/>
<path d="M15835 671 c-3 -5 -2 -12 3 -15 5 -3 9 1 9 9 0 17 -3 19 -12 6z"/>
<path d="M15410 666 c0 -2 7 -7 16 -10 8 -3 12 -2 9 4 -6 10 -25 14 -25 6z"/>
<path d="M15530 665 c0 -7 30 -13 34 -7 3 4 -4 9 -15 9 -10 1 -19 0 -19 -2z"/>
</g>
</svg>
